<svg width="24" height="25" viewBox="0 0 24 25" fill="none" xmlns="http://www.w3.org/2000/svg">
<path d="M17.2493 12.4451C17.2541 12.3289 17.2336 12.2175 17.1879 12.1108C17.1431 12.0041 17.0774 11.9122 16.9908 11.8351L8.55397 4.23827C8.51588 4.20399 8.47493 4.17351 8.43112 4.14685C8.38731 4.12018 8.34112 4.09828 8.29255 4.08113C8.24494 4.06399 8.19542 4.05209 8.14399 4.04542C8.09351 4.0378 8.04256 4.03542 7.99114 4.03828C7.93971 4.04114 7.88924 4.04875 7.83972 4.06113C7.79019 4.07351 7.7421 4.09066 7.69544 4.11256C7.64877 4.13542 7.60496 4.16208 7.56401 4.19256C7.52306 4.22303 7.48544 4.25732 7.45116 4.29541C7.41688 4.3335 7.3864 4.37445 7.35974 4.41826C7.33402 4.46302 7.3126 4.50921 7.29545 4.55683C7.27831 4.6054 7.26593 4.6554 7.25831 4.70682C7.25069 4.7573 7.24831 4.80825 7.25117 4.85967C7.25403 4.91015 7.26164 4.96062 7.27402 5.0111C7.28736 5.06062 7.30498 5.10823 7.32688 5.15395C7.34878 5.20061 7.37497 5.24442 7.40545 5.28537C7.43592 5.32632 7.47021 5.36441 7.5083 5.39965L15.3337 12.4436L7.5083 19.4891C7.43211 19.5586 7.37164 19.6395 7.32688 19.7319C7.28212 19.8271 7.25688 19.9262 7.25117 20.029C7.24641 20.1319 7.26069 20.2319 7.29402 20.329C7.32926 20.4271 7.38164 20.5147 7.45116 20.5919C7.48544 20.63 7.52354 20.6643 7.56544 20.6947C7.60544 20.7262 7.6483 20.7528 7.69401 20.7747C7.74162 20.7966 7.79019 20.8138 7.83972 20.8262C7.88924 20.8395 7.93971 20.8471 7.99114 20.849C8.04256 20.8519 8.09351 20.8495 8.14399 20.8419C8.19446 20.8352 8.24399 20.8233 8.29255 20.8062C8.34017 20.789 8.38636 20.7671 8.43112 20.7404C8.47493 20.7147 8.51588 20.6847 8.55397 20.6504L16.9908 13.055C17.0765 12.977 17.1422 12.8846 17.1879 12.7779C17.2336 12.6713 17.2541 12.5603 17.2493 12.4451Z" fill="white"/>
</svg>
