<svg width="21" height="31" viewBox="0 0 21 31" fill="none" xmlns="http://www.w3.org/2000/svg">
<path d="M19.4248 19.2076C15.7819 19.8907 12.7328 21.3818 11.0551 25.0616V0.115234H9.15893V25.0623C7.48198 21.3854 4.43284 19.8914 0.789971 19.2076C0.758457 19.2013 0.725768 19.2078 0.698901 19.2256C0.672033 19.2433 0.653121 19.271 0.646212 19.3027C0.460043 20.1586 0.286094 20.9499 0.108551 21.744C0.10469 21.761 0.104454 21.7786 0.107857 21.7957C0.111261 21.8128 0.118226 21.8289 0.12829 21.8431C0.138354 21.8572 0.151286 21.8691 0.166226 21.8778C0.181165 21.8865 0.197769 21.8919 0.214933 21.8936C0.691496 21.956 1.13643 22.0025 1.57634 22.0816C3.78808 22.4743 5.72596 23.3919 7.19877 25.1603C8.30069 26.4852 8.90735 28.0293 9.11652 29.7338C9.15174 30.0176 9.23513 30.1273 9.53199 30.1142C9.72391 30.1055 9.91511 30.1019 10.107 30.1004C10.2989 30.099 10.4909 30.1055 10.6821 30.1142C10.9789 30.1273 11.0623 30.0176 11.0968 29.7338C11.3067 28.0278 11.9126 26.4837 13.0153 25.1603C14.4881 23.3912 16.4253 22.4743 18.6377 22.0802C19.0776 22.001 19.5226 21.9546 19.9991 21.8921C20.0159 21.8899 20.0321 21.8842 20.0465 21.8754C20.061 21.8665 20.0735 21.8547 20.0833 21.8407C20.093 21.8267 20.0997 21.8108 20.1031 21.7941C20.1064 21.7773 20.1063 21.76 20.1026 21.7433C19.928 20.9484 19.754 20.1579 19.5657 19.3027C19.5588 19.2716 19.5403 19.2444 19.5141 19.2267C19.4878 19.209 19.4559 19.2022 19.4248 19.2076Z" fill="white"/>
</svg>
