<svg width="24" height="25" viewBox="0 0 24 25" fill="none" xmlns="http://www.w3.org/2000/svg">
<path d="M17.2498 12.4602C17.2546 12.344 17.2341 12.2326 17.1884 12.1259C17.1436 12.0193 17.0779 11.9274 16.9913 11.8502L8.55446 4.25341C8.51637 4.21912 8.47542 4.18865 8.43161 4.16198C8.3878 4.13532 8.34161 4.11341 8.29304 4.09627C8.24543 4.07913 8.1959 4.06722 8.14448 4.06056C8.094 4.05294 8.04305 4.05056 7.99163 4.05341C7.9402 4.05627 7.88973 4.06389 7.8402 4.07627C7.79068 4.08865 7.74259 4.10579 7.69592 4.1277C7.64926 4.15055 7.60545 4.17722 7.5645 4.20769C7.52355 4.23817 7.48593 4.27245 7.45165 4.31055C7.41736 4.34864 7.38689 4.38959 7.36022 4.4334C7.33451 4.47816 7.31308 4.52435 7.29594 4.57196C7.2788 4.62053 7.26642 4.67053 7.2588 4.72196C7.25118 4.77243 7.2488 4.82338 7.25166 4.87481C7.25451 4.92528 7.26213 4.97576 7.27451 5.02623C7.28785 5.07575 7.30546 5.12337 7.32737 5.16908C7.34927 5.21575 7.37546 5.25956 7.40594 5.30051C7.43641 5.34146 7.4707 5.37955 7.50879 5.41479L15.3342 12.4588L7.50879 19.5042C7.4326 19.5737 7.37213 19.6547 7.32737 19.7471C7.28261 19.8423 7.25737 19.9413 7.25166 20.0442C7.24689 20.147 7.26118 20.247 7.29451 20.3442C7.32975 20.4423 7.38213 20.5299 7.45165 20.607C7.48593 20.6451 7.52403 20.6794 7.56593 20.7099C7.60593 20.7413 7.64878 20.768 7.6945 20.7899C7.74211 20.8118 7.79068 20.8289 7.8402 20.8413C7.88973 20.8546 7.9402 20.8622 7.99163 20.8641C8.04305 20.867 8.094 20.8646 8.14448 20.857C8.19495 20.8503 8.24447 20.8384 8.29304 20.8213C8.34066 20.8042 8.38685 20.7822 8.43161 20.7556C8.47542 20.7299 8.51637 20.6999 8.55446 20.6656L16.9913 13.0702C17.077 12.9921 17.1427 12.8997 17.1884 12.7931C17.2341 12.6864 17.2546 12.5754 17.2498 12.4602Z" fill="white"/>
</svg>
