<svg width="24" height="24" viewBox="0 0 24 24" fill="none" xmlns="http://www.w3.org/2000/svg">
<path d="M17.2006 3.47559C17.4045 3.47559 17.5943 3.55293 17.735 3.6959L19.2396 5.20059C19.3803 5.34121 19.46 5.53105 19.46 5.73496C19.46 5.93887 19.3826 6.12871 19.2396 6.26934L17.9365 7.57246L15.3607 4.99902L16.6639 3.6959C16.8068 3.55527 16.9967 3.47559 17.2006 3.47559ZM17.2006 2.30371C16.7061 2.30371 16.2115 2.49121 15.8365 2.86621L13.7061 4.99668L17.9389 9.22949L20.0693 7.09902C20.8193 6.34902 20.8193 5.1209 20.0693 4.3709L18.5623 2.86855C18.1873 2.49121 17.6951 2.30371 17.2006 2.30371Z" fill="#BC9B6A"/>
<path d="M14.5523 5.81475L17.1375 8.3999L10.3687 15.171L7.16942 16.2764C6.8531 16.3856 6.55042 16.0813 6.66146 15.7656L7.77891 12.5882L14.5523 5.81475ZM14.5523 4.15771L6.79389 11.9162C6.77271 11.9373 6.75656 11.963 6.74663 11.9913L4.75127 17.6663C4.64025 17.982 4.94297 18.2863 5.2593 18.177L10.9627 16.2056C10.9914 16.1957 11.0174 16.1794 11.0388 16.158L18.7945 8.40225L14.5523 4.15771Z" fill="#BC9B6A"/>
<path d="M4.49512 21.1079C4.49512 20.7843 4.75745 20.522 5.08105 20.522H20.0459C20.3695 20.522 20.6318 20.7843 20.6318 21.1079C20.6318 21.4315 20.3695 21.6938 20.0459 21.6938H5.08105C4.75745 21.6938 4.49512 21.4315 4.49512 21.1079Z" fill="#BC9B6A"/>
</svg>
