<svg width="24" height="25" viewBox="0 0 24 25" fill="none" xmlns="http://www.w3.org/2000/svg">
<path d="M9.43115 9.5641C9.43115 10.2206 9.69193 10.8502 10.1561 11.3144C10.6203 11.7785 11.2499 12.0393 11.9064 12.0393C12.5629 12.0393 13.1924 11.7785 13.6566 11.3144C14.1208 10.8502 14.3816 10.2206 14.3816 9.5641C14.3816 8.90763 14.1208 8.27804 13.6566 7.81385C13.1924 7.34965 12.5629 7.08887 11.9064 7.08887C11.2499 7.08887 10.6203 7.34965 10.1561 7.81385C9.69193 8.27804 9.43115 8.90763 9.43115 9.5641Z" fill="#BC9B6A"/>
<path d="M11.9059 22.8576C11.3795 22.8576 10.875 22.6966 10.4471 22.392C10.0603 22.1167 9.76155 21.743 9.5783 21.3067L4.8389 13.913L4.83466 13.9062C4.02699 12.5938 3.6001 11.092 3.6001 9.56335C3.6001 7.3448 4.46406 5.25903 6.03281 3.69028C7.60156 2.12153 9.68733 1.25757 11.9059 1.25757C14.1244 1.25757 16.2102 2.12153 17.7789 3.69028C19.3477 5.25903 20.2117 7.3448 20.2117 9.56335C20.2117 11.0993 19.7811 12.6071 18.9665 13.9236L18.9592 13.9351L14.2266 21.3255C14.0408 21.758 13.7409 22.1279 13.3546 22.3996C12.9288 22.6992 12.4278 22.8576 11.9059 22.8576ZM6.32962 12.977L11.1562 20.5066L11.189 20.5945C11.3031 20.9 11.5845 21.0974 11.9059 21.0974C12.2245 21.0974 12.5052 20.9029 12.6211 20.6019L12.6531 20.5187L17.4732 12.9917C18.1132 11.955 18.4515 10.7697 18.4515 9.56335C18.4515 7.81495 17.7706 6.17121 16.5343 4.93488C15.298 3.69861 13.6543 3.01773 11.9059 3.01773C10.1575 3.01773 8.51374 3.69859 7.27741 4.93488C6.04109 6.17118 5.36026 7.81495 5.36026 9.56335C5.36026 10.7636 5.69541 11.9437 6.32962 12.977Z" fill="#BC9B6A"/>
</svg>
