<svg width="32" height="33" viewBox="0 0 32 33" fill="none" xmlns="http://www.w3.org/2000/svg">
<path d="M17.5194 16.6998C20.2037 10.8121 25.0823 8.42631 30.9109 7.33333C30.9607 7.32463 31.0118 7.33558 31.0538 7.3639C31.0957 7.39223 31.1253 7.43575 31.1364 7.48548C31.4377 8.85374 31.716 10.1186 31.9955 11.3905C32.0013 11.4172 32.0015 11.4449 31.9962 11.4717C31.9908 11.4985 31.98 11.5239 31.9645 11.5463C31.9489 11.5687 31.9289 11.5876 31.9057 11.6017C31.8825 11.6159 31.8567 11.6251 31.8298 11.6286C31.0673 11.7285 30.3554 11.8028 29.6516 11.9294C26.1117 12.5601 23.0122 14.0271 20.6557 16.8577C18.8915 18.9752 17.922 21.4457 17.5861 24.1753C17.5309 24.6294 17.3975 24.8048 16.9226 24.7839C16.6166 24.7699 16.3096 24.7595 16.0025 24.7618C15.6954 24.7641 15.3895 24.7699 15.0824 24.7839C14.6075 24.8048 14.474 24.6294 14.4177 24.1753C14.083 21.448 13.1124 18.9775 11.3493 16.8577C8.99278 14.0283 5.89217 12.5601 2.35339 11.9318C1.64954 11.8051 0.937644 11.7308 0.175143 11.6309C0.14768 11.6282 0.121114 11.6195 0.097211 11.6056C0.0733082 11.5917 0.0526171 11.5728 0.0365145 11.5501C0.020412 11.5275 0.00926706 11.5016 0.00382141 11.4743C-0.00162424 11.447 -0.00124578 11.4188 0.00493162 11.3917C0.289 10.121 0.567319 8.85491 0.865189 7.48548C0.876243 7.4348 0.906503 7.39049 0.949491 7.36206C0.992479 7.33362 1.04478 7.32331 1.0952 7.33333C6.92379 8.42747 11.8024 10.8179 14.4855 16.7009L16.0025 19.9003L17.5194 16.6998Z" fill="white"/>
</svg>
