<svg width="25" height="25" viewBox="0 0 25 25" fill="none" xmlns="http://www.w3.org/2000/svg">
<path fill-rule="evenodd" clip-rule="evenodd" d="M11.611 3.77125L8.79915 7.29389L7.20456 9.22382L3.18571 7.64306C2.39593 7.33241 1.57703 7.93154 1.57911 8.73314C1.57889 8.81341 1.58692 8.89572 1.60405 8.97934L1.62495 9.08132L3.09114 16.6286L3.09108 16.6286L3.09311 16.6384C3.31037 17.6851 3.76684 19.8888 3.86074 20.3582C3.95691 20.8391 4.35154 21.6026 5.06163 22.1021C5.47765 22.3948 5.98011 22.5817 6.55273 22.5957V22.5965H6.60701C6.61692 22.5966 6.62684 22.5966 6.63679 22.5965H18.5214C18.5314 22.5966 18.5413 22.5966 18.5512 22.5965H18.6064V22.5957C19.1787 22.5815 19.6808 22.3946 20.0966 22.1021C20.8067 21.6026 21.2013 20.8391 21.2975 20.3582C21.3914 19.8888 21.8478 17.6851 22.0651 16.6384L22.0671 16.6286L22.0671 16.6286L23.5333 9.08132L23.5541 8.97934C23.5713 8.89573 23.5793 8.81344 23.5791 8.73318C23.5812 7.93156 22.7623 7.3324 21.9725 7.64306L17.9536 9.22382L16.359 7.29388L13.5472 3.77125C13.3009 3.46262 12.9373 3.31523 12.5791 3.33013C12.2209 3.31523 11.8573 3.46262 11.611 3.77125Z" fill="#BC9B6A"/>
<path d="M10.0373 11.3016L12.7901 17.635L15.5428 11.3016H17.9851L14.2389 19.7358H11.2688L7.54325 11.3016H10.0373Z" fill="white"/>
</svg>
